<svg width="36" height="36" viewBox="0 0 36 36" fill="none" xmlns="http://www.w3.org/2000/svg">
<path d="M5.62563 30.3744C2.34374 27.0925 0.5 22.6413 0.5 18C0.5 13.3587 2.34374 8.90752 5.62563 5.62563C8.90752 2.34374 13.3587 0.5 18 0.5C22.6413 0.5 27.0925 2.34374 30.3744 5.62563C33.6563 8.90752 35.5 13.3587 35.5 18C35.5 22.6413 33.6563 27.0925 30.3744 30.3744C27.0925 33.6563 22.6413 35.5 18 35.5C13.3587 35.5 8.90752 33.6563 5.62563 30.3744Z" stroke="white"/>
<path d="M18 14.2449C17.2573 14.2449 16.5313 14.4651 15.9138 14.8777C15.2963 15.2904 14.815 15.8768 14.5307 16.563C14.2465 17.2491 14.1722 18.0042 14.3171 18.7326C14.4619 19.461 14.8196 20.1301 15.3447 20.6553C15.8699 21.1804 16.539 21.5381 17.2674 21.6829C17.9958 21.8278 18.7509 21.7535 19.437 21.4693C20.1232 21.185 20.7096 20.7037 21.1223 20.0862C21.5349 19.4687 21.7551 18.7427 21.7551 18C21.754 17.0044 21.358 16.05 20.654 15.346C19.95 14.642 18.9956 14.246 18 14.2449ZM18 20.7755C17.4511 20.7755 16.9144 20.6127 16.458 20.3078C16.0016 20.0028 15.6458 19.5693 15.4358 19.0621C15.2257 18.555 15.1707 17.9969 15.2778 17.4585C15.3849 16.9201 15.6493 16.4256 16.0374 16.0374C16.4256 15.6493 16.9201 15.3849 17.4585 15.2778C17.9969 15.1707 18.555 15.2257 19.0621 15.4358C19.5693 15.6458 20.0028 16.0016 20.3078 16.458C20.6127 16.9144 20.7755 17.4511 20.7755 18C20.7747 18.7359 20.482 19.4413 19.9617 19.9617C19.4413 20.482 18.7359 20.7747 18 20.7755ZM21.5918 10H14.4082C13.2395 10.0013 12.119 10.4662 11.2926 11.2926C10.4662 12.119 10.0013 13.2395 10 14.4082V21.5918C10.0013 22.7605 10.4662 23.881 11.2926 24.7074C12.119 25.5338 13.2395 25.9987 14.4082 26H21.5918C22.7605 25.9987 23.881 25.5338 24.7074 24.7074C25.5338 23.881 25.9987 22.7605 26 21.5918V14.4082C25.9987 13.2395 25.5338 12.119 24.7074 11.2926C23.881 10.4662 22.7605 10.0013 21.5918 10ZM25.0204 21.5918C25.0194 22.5008 24.6578 23.3723 24.0151 24.0151C23.3723 24.6578 22.5008 25.0194 21.5918 25.0204H14.4082C13.4992 25.0194 12.6277 24.6578 11.9849 24.0151C11.3422 23.3723 10.9806 22.5008 10.9796 21.5918V14.4082C10.9806 13.4992 11.3422 12.6277 11.9849 11.9849C12.6277 11.3422 13.4992 10.9806 14.4082 10.9796H21.5918C22.5008 10.9806 23.3723 11.3422 24.0151 11.9849C24.6578 12.6277 25.0194 13.4992 25.0204 14.4082V21.5918ZM23.0612 13.7551C23.0612 13.9166 23.0133 14.0744 22.9236 14.2086C22.8339 14.3429 22.7065 14.4475 22.5573 14.5093C22.4081 14.5711 22.244 14.5872 22.0856 14.5557C21.9273 14.5242 21.7818 14.4465 21.6677 14.3323C21.5535 14.2182 21.4758 14.0727 21.4443 13.9144C21.4128 13.756 21.4289 13.5919 21.4907 13.4427C21.5525 13.2935 21.6571 13.1661 21.7914 13.0764C21.9256 12.9867 22.0834 12.9388 22.2449 12.9388C22.4613 12.939 22.6688 13.0251 22.8218 13.1782C22.9749 13.3312 23.061 13.5387 23.0612 13.7551Z" fill="white"/>
</svg>
