<svg width="36" height="36" viewBox="0 0 36 36" fill="none" xmlns="http://www.w3.org/2000/svg">
<path d="M5.62563 30.3744C2.34374 27.0925 0.5 22.6413 0.5 18C0.5 13.3587 2.34374 8.90752 5.62563 5.62563C8.90752 2.34374 13.3587 0.5 18 0.5C22.6413 0.5 27.0925 2.34374 30.3744 5.62563C33.6563 8.90752 35.5 13.3587 35.5 18C35.5 22.6413 33.6563 27.0925 30.3744 30.3744C27.0925 33.6563 22.6413 35.5 18 35.5C13.3587 35.5 8.90752 33.6563 5.62563 30.3744Z" stroke="white"/>
<path d="M25.519 22.394L22.519 20.3893C22.0197 20.0553 21.5387 20.067 21.1227 20.409C19.9547 21.3667 19.262 21.092 19.1493 21.0353C18.4887 20.7047 17.8647 20.3927 16.9023 19.431C15.7077 18.2357 15.2763 17.4727 14.965 16.851C14.8407 16.6023 14.6973 15.7663 15.515 14.8947C15.8973 14.4877 15.9327 13.9877 15.6147 13.4877C15.3697 13.1023 15.3697 13.1023 15.177 12.819C14.987 12.539 14.6073 11.9797 13.606 10.481C13.3897 10.1577 13.0823 10 12.6667 10C12.1953 10 11.9567 10.239 11.7643 10.431L10.7643 11.431C10.0563 12.1387 10 12.5443 10 13C10 13.5737 10.8283 17.313 14.764 21.235C18.687 25.1713 22.4227 26 22.996 26H23.018C23.4697 25.9933 23.871 25.9337 24.5687 25.2357L25.5687 24.2357C25.761 24.0437 26 23.8047 26 23.3333C26 22.9173 25.8423 22.61 25.519 22.394ZM25.0977 23.7643L24.0977 24.7643C23.5363 25.3257 23.2923 25.3293 22.996 25.3333C22.955 25.332 19.3657 24.909 15.2353 20.7637C11.1383 16.681 10.6673 13.032 10.6667 13C10.6667 12.7043 10.6667 12.4713 11.2353 11.9023L12.2353 10.9023C12.411 10.7273 12.481 10.6667 12.6667 10.6667C12.8843 10.6667 12.9757 10.7377 13.052 10.8517C14.055 12.353 14.4353 12.9137 14.6257 13.1933C14.8133 13.4693 14.8133 13.4693 15.0523 13.8457C15.2417 14.1433 15.153 14.3067 15.029 14.4387C13.9887 15.5467 14.1423 16.6957 14.3687 17.149C14.703 17.8177 15.1653 18.6367 16.431 19.9023C17.4693 20.9407 18.172 21.2917 18.851 21.6317C19.038 21.7247 19.282 21.7763 19.5387 21.7763C19.9807 21.7763 20.687 21.6287 21.5453 20.9247C21.667 20.8243 21.7537 20.8127 21.8083 20.8127C21.904 20.8127 22.0187 20.857 22.1487 20.9443L25.1487 22.9483C25.2623 23.024 25.3333 23.1153 25.3333 23.3333C25.3333 23.519 25.2727 23.5893 25.0977 23.7643Z" fill="white"/>
</svg>
