<svg width="36" height="36" viewBox="0 0 36 36" fill="none" xmlns="http://www.w3.org/2000/svg">
<path d="M5.62563 30.3744C2.34374 27.0925 0.5 22.6413 0.5 18C0.5 13.3587 2.34374 8.90752 5.62563 5.62563C8.90752 2.34374 13.3587 0.5 18 0.5C22.6413 0.5 27.0925 2.34374 30.3744 5.62563C33.6563 8.90752 35.5 13.3587 35.5 18C35.5 22.6413 33.6563 27.0925 30.3744 30.3744C27.0925 33.6563 22.6413 35.5 18 35.5C13.3587 35.5 8.90752 33.6563 5.62563 30.3744Z" stroke="white"/>
<path fill-rule="evenodd" clip-rule="evenodd" d="M9.35987 19.433C9.15501 19.3691 9.01122 19.1785 9.00062 18.9569C8.99003 18.7359 9.11515 18.5311 9.31244 18.4468C12.6754 17.0095 21.5207 13.229 24.3029 12.0395C24.4735 11.9667 24.6682 11.996 24.812 12.1159C24.9553 12.2359 25.0245 12.4276 24.9922 12.6161C24.527 15.3204 23.1908 23.0853 22.764 25.5685C22.7342 25.7408 22.6237 25.8865 22.4688 25.9561C22.3144 26.0263 22.1363 26.0116 21.994 25.9168C20.6059 24.9903 17.3287 22.8035 16.0708 21.9639C15.9451 21.8801 15.8618 21.7439 15.8432 21.5905C15.824 21.4375 15.8709 21.283 15.9714 21.1694C17.25 19.7216 21.117 15.3424 21.117 15.3424C21.117 15.3424 14.4657 19.6577 13.2375 20.4544C13.1144 20.5345 12.9641 20.5555 12.8248 20.512C12.2344 20.3282 10.5693 19.8096 9.35987 19.433Z" fill="#F9F6F9"/>
</svg>
